<?xml version="1.0" encoding="utf-8"?>
<!-- Generator: Adobe Illustrator 24.0.1, SVG Export Plug-In . SVG Version: 6.00 Build 0)  -->
<svg version="1.1" id="Layer_1" xmlns="http://www.w3.org/2000/svg" xmlns:xlink="http://www.w3.org/1999/xlink" x="0px" y="0px"
	 viewBox="0 0 128 128" style="enable-background:new 0 0 128 128;" xml:space="preserve">
<style type="text/css">
	.st0{fill:#2061AE;}
	.st1{fill:#131826;}
</style>
<g>
	<g>
		<path class="st0" d="M56.13,74.86c0.12,0.16,0.24,0.32,0.36,0.48C56.37,75.18,56.25,75.02,56.13,74.86z"/>
		<path class="st0" d="M54.81,73.35c0.09,0.09,0.16,0.19,0.25,0.28C54.98,73.53,54.9,73.44,54.81,73.35z"/>
		<path class="st0" d="M57.35,76.66c0.08,0.13,0.16,0.26,0.24,0.39C57.51,76.92,57.43,76.8,57.35,76.66z"/>
		<path class="st0" d="M58.45,78.85c0.06,0.14,0.1,0.29,0.16,0.43C58.56,79.15,58.51,79,58.45,78.85z"/>
		<path class="st0" d="M52.93,71.72c0.13,0.1,0.28,0.2,0.41,0.31C53.21,71.92,53.07,71.82,52.93,71.72z"/>
		<path class="st0" d="M51.16,70.54c0.17,0.1,0.34,0.21,0.51,0.31C51.51,70.75,51.34,70.65,51.16,70.54z"/>
		<path class="st0" d="M52.3,99.41c1.26-0.79,2.44-1.7,3.53-2.72c0.3-0.28,0.57-0.61,0.78-0.96c1.17-1.89,2.03-3.94,2.56-6.1
			C58.14,93.62,55.69,97.09,52.3,99.41z"/>
		<path class="st0" d="M44.78,68.41c0.2,0.02,0.4,0.06,0.6,0.09C45.18,68.48,44.98,68.44,44.78,68.41z"/>
		<path class="st0" d="M49.36,69.63c0.07,0.03,0.14,0.07,0.21,0.1C49.51,69.7,49.44,69.66,49.36,69.63z"/>
		<path class="st0" d="M59.11,80.81c0.06,0.2,0.11,0.4,0.16,0.6C59.22,81.21,59.16,81.01,59.11,80.81z"/>
		<path class="st0" d="M42.59,102.4c-0.48,0-0.96-0.05-1.43-0.09C41.63,102.35,42.1,102.4,42.59,102.4z"/>
		<path class="st0" d="M46.98,101.83l-0.26,0.07L46.98,101.83z"/>
		<path class="st0" d="M59.57,83.1c0.02,0.13,0.04,0.25,0.06,0.37C59.61,83.35,59.59,83.23,59.57,83.1z"/>
		<path class="st0" d="M40.45,102.25c-0.69-0.09-1.38-0.22-2.05-0.39C39.08,102.04,39.76,102.16,40.45,102.25z"/>
		<path class="st0" d="M44.87,102.24c-0.1,0.01-0.19,0.03-0.29,0.04C44.68,102.27,44.78,102.25,44.87,102.24z"/>
		<path class="st0" d="M52.02,99.6c-0.3,0.2-0.61,0.38-0.93,0.57C51.41,100,51.71,99.79,52.02,99.6z"/>
		<path class="st0" d="M59.72,85.59c0,0.19-0.02,0.37-0.03,0.55C59.7,85.95,59.72,85.76,59.72,85.59z"/>
		<path class="st0" d="M59.54,87.76c-0.04,0.25-0.07,0.51-0.12,0.75C59.47,88.26,59.51,88.01,59.54,87.76z"/>
		<path class="st0" d="M46.91,68.82c0.18,0.05,0.37,0.09,0.55,0.14C47.28,68.91,47.09,68.87,46.91,68.82z"/>
	</g>
	<g>
		<path class="st0" d="M57.59,77.05c0.32,0.58,0.61,1.19,0.87,1.8C58.2,78.24,57.91,77.63,57.59,77.05z"/>
		<path class="st0" d="M58.61,79.29c0.19,0.5,0.35,1,0.49,1.52C58.97,80.29,58.8,79.79,58.61,79.29z"/>
		<path class="st0" d="M59.73,85.33c0-0.62-0.04-1.24-0.1-1.86c0.07,0.7,0.1,1.41,0.09,2.11C59.73,85.5,59.73,85.42,59.73,85.33z"/>
		<path class="st0" d="M59.26,81.41c0.13,0.56,0.23,1.12,0.31,1.69C59.5,82.53,59.39,81.97,59.26,81.41z"/>
		<path class="st0" d="M45.38,68.5c0.52,0.08,1.03,0.19,1.53,0.32C46.41,68.69,45.9,68.58,45.38,68.5z"/>
		<path class="st0" d="M42.67,68.27c0.71,0,1.41,0.05,2.11,0.14C44.08,68.32,43.37,68.27,42.67,68.27z"/>
		<path class="st0" d="M49.58,69.74c0.54,0.24,1.07,0.51,1.58,0.81C50.65,70.25,50.12,69.98,49.58,69.74z"/>
		<path class="st0" d="M47.46,68.96c0.65,0.19,1.28,0.41,1.9,0.67C48.74,69.37,48.11,69.15,47.46,68.96z"/>
		<path class="st0" d="M56.49,75.35c0.31,0.43,0.59,0.85,0.85,1.31C57.08,76.21,56.8,75.77,56.49,75.35z"/>
		<path class="st0" d="M55.06,73.63c0.37,0.39,0.73,0.81,1.07,1.24C55.8,74.43,55.44,74.02,55.06,73.63z"/>
		<path class="st0" d="M51.68,70.85c0.43,0.27,0.85,0.56,1.26,0.87C52.53,71.42,52.11,71.13,51.68,70.85z"/>
		<path class="st0" d="M53.33,72.03c0.52,0.41,1.01,0.85,1.47,1.32C54.34,72.88,53.85,72.44,53.33,72.03z"/>
		<path class="st0" d="M51.09,100.17c-1.3,0.72-2.68,1.28-4.11,1.66C48.42,101.46,49.8,100.9,51.09,100.17z"/>
		<path class="st0" d="M46.72,101.89c-0.61,0.15-1.23,0.27-1.86,0.35C45.49,102.16,46.11,102.04,46.72,101.89z"/>
		<path class="st0" d="M42.67,102.4c0.64,0,1.28-0.04,1.92-0.12c-0.66,0.08-1.33,0.11-2,0.11L42.67,102.4z"/>
		<path class="st0" d="M41.16,102.3c-0.23-0.02-0.47-0.02-0.7-0.05C40.68,102.28,40.93,102.28,41.16,102.3z"/>
		<path class="st0" d="M59.69,86.14c-0.02,0.54-0.08,1.08-0.15,1.63C59.62,87.23,59.67,86.69,59.69,86.14z"/>
		<path class="st0" d="M52.3,99.41c-0.09,0.06-0.18,0.12-0.28,0.18L52.3,99.41z"/>
		<path class="st0" d="M59.43,88.52c-0.07,0.37-0.17,0.75-0.26,1.13C59.26,89.27,59.35,88.9,59.43,88.52z"/>
	</g>
	<path class="st0" d="M78.93,74.67h-2.35c-0.88,0-1.67-0.55-1.98-1.38c-0.26-0.68-0.54-1.35-0.84-2.01c-0.37-0.8-0.2-1.76,0.43-2.38
		l1.67-1.67c2.48-2.5,2.48-6.54-0.01-9.04l-6.03-6.03c-2.5-2.49-6.54-2.49-9.05,0l-1.67,1.67c-0.63,0.63-1.58,0.8-2.38,0.43
		c-0.66-0.3-1.33-0.58-2.01-0.85c-0.83-0.3-1.39-1.09-1.38-1.98v-2.35c0-3.53-2.87-6.4-6.4-6.4H38.4c-3.53,0-6.4,2.87-6.4,6.4v2.35
		c0,0.88-0.55,1.67-1.38,1.98c-0.68,0.26-1.35,0.54-2.01,0.84c-0.8,0.37-1.76,0.2-2.38-0.43l-1.67-1.67c-2.5-2.49-6.54-2.49-9.04,0
		l-6.03,6.05c-2.49,2.5-2.49,6.54,0,9.05l1.67,1.67c0.63,0.63,0.8,1.58,0.43,2.38c-0.3,0.66-0.58,1.33-0.84,2.01
		c-0.31,0.83-1.1,1.38-1.99,1.38H6.4c-3.54,0-6.4,2.86-6.4,6.4v8.53C0,93.14,2.87,96,6.4,96h2.35c0.88,0,1.67,0.55,1.98,1.38
		c0.26,0.68,0.54,1.35,0.84,2.01c0.37,0.8,0.2,1.76-0.43,2.38l-1.67,1.67c-2.49,2.5-2.49,6.54,0,9.04l6.03,6.03
		c2.5,2.49,6.54,2.49,9.05,0l1.67-1.67c0.63-0.63,1.58-0.8,2.38-0.43c0.66,0.3,1.33,0.58,2.01,0.85c0.84,0.3,1.4,1.09,1.4,1.98v2.35
		c0,3.54,2.87,6.4,6.4,6.4h8.53c3.53,0,6.4-2.86,6.4-6.4v-2.35c0-0.88,0.55-1.67,1.38-1.98c0.68-0.26,1.35-0.54,2.01-0.84
		c0.8-0.37,1.76-0.2,2.38,0.43l1.67,1.67c2.5,2.48,6.54,2.48,9.04-0.01l6.03-6.03c2.49-2.5,2.49-6.54,0-9.05l-1.67-1.67
		c-0.63-0.63-0.8-1.58-0.43-2.38c0.3-0.66,0.58-1.33,0.85-2.01c0.3-0.83,1.09-1.39,1.98-1.38h2.35c3.54,0,6.4-2.86,6.4-6.4v-8.53
		C85.33,77.53,82.47,74.67,78.93,74.67z M81.07,89.6c0,1.18-0.96,2.13-2.13,2.13h-2.35c-2.65,0.01-5.03,1.65-5.97,4.13
		c-0.23,0.6-0.47,1.19-0.73,1.76c-1.1,2.42-0.59,5.27,1.28,7.16l1.67,1.67c0.83,0.83,0.83,2.18,0,3.02l0,0l-6.03,6.03
		c-0.83,0.83-2.18,0.83-3.02,0l-1.67-1.67c-1.89-1.87-4.74-2.38-7.16-1.28c-0.58,0.26-1.17,0.51-1.76,0.73
		c-2.47,0.95-4.11,3.32-4.12,5.97v2.35c0,1.18-0.96,2.13-2.13,2.13H38.4c-1.18,0-2.13-0.96-2.13-2.13v-2.35
		c-0.01-2.65-1.65-5.03-4.13-5.97c-0.6-0.23-1.19-0.47-1.76-0.73c-2.42-1.1-5.27-0.59-7.16,1.28l-1.67,1.67
		c-0.83,0.83-2.18,0.83-3.02,0l0,0l-6.03-6.02c-0.83-0.83-0.83-2.18,0-3.02l1.67-1.67c1.87-1.89,2.38-4.74,1.28-7.16
		c-0.26-0.58-0.51-1.17-0.73-1.76c-0.94-2.48-3.32-4.12-5.97-4.13H6.4c-1.18,0-2.13-0.96-2.13-2.13v-8.53
		c0-1.18,0.96-2.13,2.13-2.13h2.35c2.65-0.01,5.03-1.65,5.97-4.13c0.23-0.6,0.47-1.19,0.73-1.76c1.1-2.42,0.59-5.27-1.28-7.16
		l-1.68-1.67c-0.83-0.83-0.83-2.18,0-3.02l0,0l6.03-6.03c0.83-0.83,2.18-0.83,3.02,0l1.67,1.67c1.89,1.87,4.74,2.38,7.16,1.28
		c0.58-0.26,1.17-0.51,1.76-0.73c2.48-0.94,4.12-3.32,4.13-5.97v-2.35c0-1.18,0.96-2.13,2.13-2.13h8.53c1.18,0,2.13,0.96,2.13,2.13
		v2.35c0.01,2.65,1.65,5.03,4.13,5.97c0.6,0.23,1.19,0.47,1.76,0.73c2.42,1.1,5.27,0.59,7.16-1.28l1.67-1.67
		c0.84-0.83,2.18-0.83,3.02,0l6.03,6.03c0.83,0.83,0.83,2.18,0,3.02l-1.67,1.67c-1.87,1.89-2.38,4.74-1.28,7.16
		c0.26,0.58,0.51,1.17,0.73,1.76c0.95,2.47,3.32,4.11,5.97,4.12h2.35c1.18,0,2.13,0.96,2.13,2.13L81.07,89.6L81.07,89.6z"/>
	<path class="st0" d="M61.82,84.48c-0.02-0.51-0.06-1.02-0.12-1.53c-0.07-0.55-0.15-1.09-0.26-1.62c-0.07-0.35-0.17-0.69-0.27-1.04
		c-0.12-0.44-0.25-0.87-0.4-1.3c-0.1-0.3-0.21-0.59-0.32-0.88c-0.28-0.68-0.59-1.35-0.94-2c-0.03-0.05-0.04-0.1-0.07-0.15
		c-0.55-0.99-1.2-1.92-1.92-2.8c-0.06-0.08-0.13-0.15-0.2-0.22c-0.29-0.35-0.6-0.68-0.92-1.01c-0.17-0.17-0.34-0.33-0.52-0.5
		c-0.21-0.2-0.43-0.39-0.64-0.58c-0.26-0.22-0.52-0.44-0.79-0.65l-0.35-0.26c-3.3-2.47-7.32-3.81-11.44-3.81
		c-0.21,0-0.43,0.03-0.64,0.04c-0.45,0.01-0.91,0.04-1.37,0.09c-0.24,0.03-0.48,0.05-0.73,0.09c-0.7,0.09-1.38,0.22-2.07,0.39
		c-10.27,2.65-16.45,13.13-13.79,23.41c1.75,6.77,7.04,12.05,13.81,13.8c0.03,0,0.07,0.01,0.11,0.02c0.74,0.18,1.48,0.33,2.24,0.43
		c0.5,0.06,0.99,0.07,1.49,0.1c0.33,0.02,0.64,0.07,0.99,0.07c0.61,0,1.24-0.04,1.88-0.1c0.07,0,0.14-0.02,0.21-0.03
		c0.52-0.06,1.04-0.13,1.58-0.24c0.21-0.04,0.41-0.09,0.62-0.14c0.38-0.09,0.75-0.18,1.13-0.29c0.3-0.09,0.59-0.19,0.88-0.3
		c0.29-0.1,0.6-0.21,0.9-0.33s0.56-0.25,0.83-0.38c0.36-0.16,0.71-0.33,1.07-0.52h0.01c1.99-1.07,3.83-2.39,5.47-3.95
		c0.44-0.41,0.83-0.88,1.14-1.4c1.67-2.67,2.76-5.66,3.21-8.77c0.06-0.41,0.11-0.82,0.15-1.24c0.03-0.39,0.05-0.77,0.06-1.15
		c0-0.12,0.02-0.24,0.02-0.36C61.87,85.05,61.84,84.77,61.82,84.48z M38.92,70.87c1.22-0.31,2.49-0.47,3.75-0.47
		c0.61,0,1.22,0.04,1.82,0.12c0.16,0.02,0.32,0.05,0.48,0.07c0.46,0.07,0.92,0.16,1.37,0.28c0.15,0.04,0.29,0.07,0.44,0.11
		c1.13,0.33,2.23,0.79,3.25,1.37c0.16,0.1,0.32,0.2,0.49,0.3c0.34,0.21,0.66,0.43,0.99,0.67c0.17,0.13,0.35,0.25,0.51,0.38
		c0.42,0.33,0.82,0.69,1.2,1.07c0.15,0.15,0.29,0.32,0.44,0.48c0.25,0.27,0.48,0.54,0.71,0.83c0.16,0.2,0.31,0.4,0.46,0.61
		c0.21,0.31,0.43,0.63,0.62,0.95c0.11,0.18,0.21,0.35,0.32,0.53c0.28,0.51,0.52,1.03,0.73,1.56c0.09,0.21,0.16,0.43,0.23,0.64
		c0.14,0.39,0.26,0.79,0.36,1.19c0.05,0.21,0.11,0.4,0.16,0.61c0.12,0.58,0.22,1.16,0.27,1.75c0.01,0.16,0.01,0.31,0.02,0.47
		c0.03,0.49,0.04,0.98,0.02,1.48c0,0.18-0.01,0.35-0.03,0.53c-0.04,0.52-0.1,1.03-0.19,1.55c-0.8,4.44-3.55,8.28-7.5,10.45
		c-0.26,0.14-0.52,0.27-0.78,0.39l-0.18,0.09c-1.24,0.56-2.55,0.96-3.89,1.18c-0.09,0.01-0.19,0.03-0.29,0.04
		c-0.27,0.04-0.53,0.07-0.79,0.09c-0.34,0.03-0.69,0.05-1.04,0.05c-0.15,0-0.3,0-0.45,0c-0.51-0.01-1.01-0.04-1.51-0.09l-0.26-0.03
		c-0.59-0.08-1.17-0.19-1.74-0.33c-7.99-2.05-12.81-10.18-10.76-18.17C29.52,76.35,33.64,72.23,38.92,70.87L38.92,70.87z"/>
	<path class="st1" d="M121.6,44.8h-6.71c-0.89,0.01-1.7-0.55-1.99-1.4c-0.66-1.98-1.46-3.91-2.4-5.78c-0.4-0.81-0.23-1.78,0.41-2.41
		l4.76-4.76c2.5-2.5,2.5-6.55,0-9.05l-9.07-9.06c-2.5-2.5-6.55-2.5-9.05,0l-4.75,4.75c-0.63,0.64-1.6,0.81-2.41,0.41
		c-1.87-0.94-3.8-1.74-5.79-2.41c-0.85-0.29-1.42-1.09-1.41-1.99V6.4c0-3.54-2.86-6.4-6.4-6.4H64c-3.53,0-6.4,2.87-6.4,6.4v6.71
		c0.01,0.89-0.55,1.7-1.4,1.99c-1.98,0.67-3.91,1.47-5.78,2.41c-0.81,0.4-1.78,0.23-2.41-0.41l-4.76-4.76
		c-2.5-2.49-6.54-2.49-9.05,0l-9.05,9.05c-2.5,2.5-2.5,6.55,0,9.05l7,7.01c0.85,0.82,2.2,0.8,3.02-0.05c0.8-0.83,0.8-2.14,0-2.97
		l-7-7.01c-0.83-0.83-0.83-2.18,0-3.02l9.05-9.05c0.83-0.83,2.18-0.83,3.02,0L45,20.12c1.93,1.94,4.88,2.43,7.33,1.2
		c1.69-0.85,3.44-1.57,5.23-2.17c2.59-0.87,4.32-3.31,4.31-6.04V6.4c0-1.18,0.96-2.13,2.13-2.13h12.8c1.18,0,2.13,0.96,2.13,2.13
		v6.71c-0.01,2.73,1.73,5.16,4.31,6.04c1.79,0.6,3.54,1.33,5.23,2.18c2.45,1.22,5.4,0.73,7.33-1.21l4.77-4.76
		c0.83-0.83,2.18-0.83,3.02,0l9.05,9.06c0.83,0.83,0.83,2.18,0,3.01l-4.76,4.77c-1.94,1.93-2.42,4.88-1.2,7.33
		c0.85,1.69,1.57,3.44,2.17,5.23c0.87,2.59,3.31,4.32,6.04,4.31h6.71c1.18,0,2.13,0.96,2.13,2.13V64c0,1.18-0.96,2.13-2.13,2.13
		h-6.71c-2.73-0.01-5.16,1.73-6.04,4.31c-0.6,1.79-1.33,3.54-2.18,5.23c-1.22,2.45-0.73,5.4,1.21,7.33l4.76,4.77
		c0.83,0.83,0.83,2.18,0,3.02l-9.06,9.05c-0.83,0.83-2.18,0.83-3.01,0l-7.01-7c-0.82-0.85-2.17-0.87-3.02-0.05
		c-0.85,0.82-0.87,2.17-0.05,3.02c0.02,0.02,0.03,0.03,0.05,0.05l7.01,7c2.5,2.5,6.55,2.5,9.05,0l9.05-9.05c2.5-2.5,2.5-6.55,0-9.05
		L110.91,80c-0.64-0.63-0.81-1.6-0.41-2.41c0.94-1.87,1.74-3.8,2.41-5.79c0.29-0.85,1.09-1.42,1.99-1.41h6.71
		c3.54,0,6.4-2.86,6.4-6.4V51.2C128,47.67,125.14,44.8,121.6,44.8z"/>
	<path class="st1" d="M90.01,37.99c-10.84-10.81-28.38-10.81-39.22,0c-0.82,0.85-0.8,2.2,0.05,3.02c0.83,0.8,2.14,0.8,2.96,0
		c9.1-9.22,23.96-9.32,33.19-0.22s9.32,23.96,0.22,33.19c-0.07,0.07-0.15,0.15-0.22,0.22c-0.85,0.82-0.87,2.17-0.05,3.02
		s2.17,0.87,3.02,0.05c0.02-0.02,0.03-0.03,0.05-0.05C100.82,66.37,100.82,48.83,90.01,37.99z"/>
</g>
</svg>
