<?xml version="1.0" encoding="utf-8"?>
<!-- Generator: Adobe Illustrator 24.0.1, SVG Export Plug-In . SVG Version: 6.00 Build 0)  -->
<svg version="1.1" id="Layer_1" xmlns="http://www.w3.org/2000/svg" xmlns:xlink="http://www.w3.org/1999/xlink" x="0px" y="0px"
	 viewBox="0 0 128 128" style="enable-background:new 0 0 128 128;" xml:space="preserve">
<style type="text/css">
	.st0{fill:#131826;}
	.st1{fill:#2061AE;}
</style>
<g>
	<path class="st0" d="M32.33,110.96c-0.51,0-0.99-0.15-1.4-0.44C15.83,99.91,6.81,82.58,6.81,64.15c0-30.41,24.6-55.46,55.17-56.58
		v5.07c-27.77,1.11-50.11,23.9-50.11,51.51c0,16.77,8.2,32.54,21.94,42.2c0.67,0.47,1.06,1.2,1.08,2.01
		c0.02,0.79-0.32,1.52-0.94,2.01C33.45,110.77,32.9,110.96,32.33,110.96z"/>
	<polygon class="st0" points="64.54,0 79.22,10.09 64.54,20.12 	"/>
	<path class="st0" d="M66.06,115.41c27.75-1.11,50.06-23.9,50.06-51.51c0-16.77-8.2-32.54-21.94-42.2c-0.67-0.47-1.06-1.2-1.08-2.01
		c-0.02-0.79,0.32-1.52,0.94-2.01c0.51-0.4,1.06-0.59,1.62-0.59c0.51,0,0.99,0.15,1.4,0.44c15.1,10.61,24.12,27.94,24.12,46.37
		c0,30.41-24.58,55.46-55.13,56.58V115.41z"/>
	<polygon class="st0" points="48.78,117.96 63.46,107.93 63.46,128 	"/>
	<path class="st1" d="M53.33,81.76c-0.18,0-0.35-0.01-0.53-0.03c-1.25-0.15-2.39-0.81-3.14-1.81l-9.72-12.96
		c-0.99-1.32-0.72-3.19,0.6-4.18c0.52-0.39,1.14-0.59,1.78-0.59c0.95,0,1.82,0.44,2.39,1.19l8.82,11.76l2.93-2.36l27.29-22.63
		c0.53-0.44,1.21-0.69,1.9-0.69c0.89,0,1.73,0.39,2.3,1.08c0.51,0.61,0.75,1.39,0.68,2.19c-0.07,0.79-0.45,1.51-1.07,2.02
		L56.28,80.7C55.46,81.39,54.41,81.76,53.33,81.76z"/>
</g>
</svg>
