<?xml version="1.0" encoding="utf-8"?>
<!-- Generator: Adobe Illustrator 24.0.1, SVG Export Plug-In . SVG Version: 6.00 Build 0)  -->
<svg version="1.1" id="Layer_1" xmlns="http://www.w3.org/2000/svg" xmlns:xlink="http://www.w3.org/1999/xlink" x="0px" y="0px"
	 viewBox="0 0 128 128" style="enable-background:new 0 0 128 128;" xml:space="preserve">
<style type="text/css">
	.st0{fill:#131826;}
	.st1{fill:#2061AE;}
	.st2{fill:#FFFFFF;}
</style>
<g>
	<path class="st0" d="M115.99,71.77c-4.57,0-8.55,3.25-9.45,7.74l-0.2,1.01l-25.91,3.67l-0.4-1.11c-2-5.58-6.84-9.78-12.63-10.96
		l-1.16-0.24V56.16h-4.49v15.71l-1.16,0.24c-5.79,1.18-10.63,5.38-12.63,10.96l-0.4,1.11l-25.91-3.67l-0.2-1.01
		c-0.9-4.48-4.87-7.74-9.45-7.74c-5.31,0-9.64,4.32-9.64,9.63c0,5.31,4.32,9.64,9.64,9.64c3.59,0,6.86-1.98,8.54-5.18l0.48-0.91
		l25.91,3.67L47,89.81c0.14,2.36,0.76,4.62,1.84,6.72l0.55,1.06l-16.63,13.14l-0.87-0.54c-1.53-0.96-3.29-1.46-5.1-1.46
		c-5.31,0-9.64,4.32-9.64,9.64c0,5.31,4.32,9.64,9.64,9.64c5.31,0,9.64-4.32,9.64-9.64c0-1.07-0.18-2.13-0.53-3.15l-0.34-0.98
		l16.63-13.14l0.91,0.76c3.06,2.56,6.93,3.97,10.91,3.97c3.97,0,7.84-1.4,10.89-3.95l0.91-0.76l16.4,13.12l-0.34,0.97
		c-0.36,1.02-0.54,2.08-0.54,3.16c0,5.31,4.32,9.64,9.63,9.64c5.31,0,9.64-4.32,9.64-9.64c0-5.31-4.32-9.64-9.64-9.64
		c-1.8,0-3.55,0.5-5.08,1.46l-0.87,0.54l-16.4-13.12l0.54-1.06c1.08-2.11,1.7-4.38,1.84-6.74l0.07-1.18l25.91-3.67l0.48,0.91
		c1.68,3.19,4.95,5.18,8.54,5.18c5.31,0,9.64-4.32,9.64-9.64C125.63,76.09,121.31,71.77,115.99,71.77z M12.01,86.55
		c-2.84,0-5.15-2.31-5.15-5.15c0-2.84,2.31-5.15,5.15-5.15s5.15,2.31,5.15,5.15C17.16,84.24,14.85,86.55,12.01,86.55z M26.79,123.51
		c-2.84,0-5.15-2.31-5.15-5.15c0-2.84,2.31-5.15,5.15-5.15s5.15,2.31,5.15,5.15C31.94,121.2,29.63,123.51,26.79,123.51z M64,101.34
		c-6.92,0-12.54-5.63-12.54-12.54S57.08,76.25,64,76.25c6.92,0,12.54,5.63,12.54,12.54S70.92,101.34,64,101.34z M100.96,113.22
		c2.84,0,5.15,2.31,5.15,5.15c0,2.84-2.31,5.15-5.15,5.15s-5.15-2.31-5.15-5.15C95.81,115.53,98.12,113.22,100.96,113.22z
		 M115.99,86.55c-2.84,0-5.15-2.31-5.15-5.15c0-2.84,2.31-5.15,5.15-5.15c2.84,0,5.15,2.31,5.15,5.15
		C121.14,84.24,118.83,86.55,115.99,86.55z"/>
	<path class="st1" d="M108.53,27.72h-2.11l-0.32-0.89c-2.74-7.77-10.25-13.19-18.24-13.19c-0.72,0-1.42,0.05-2.15,0.15l-0.98,0.13
		l-0.41-0.9C80.65,5.11,72.68,0,64,0c-8.68,0-16.66,5.11-20.32,13.03l-0.41,0.89l-0.98-0.13c-0.83-0.11-1.63-0.16-2.37-0.16
		c-8.02,0-15.26,5.3-18.02,13.19l-0.31,0.9h-2.11c-6.78,0-12.29,5.51-12.29,12.29c0,6.78,5.51,12.29,12.29,12.29h89.06
		c6.78,0,12.29-5.51,12.29-12.29C120.82,33.23,115.31,27.72,108.53,27.72z M108.53,48.17H19.47c-4.5,0-8.16-3.66-8.16-8.16
		c0-4.5,3.66-8.16,8.16-8.16h5.44l0.34-1.66c1.44-7.09,7.74-12.43,14.67-12.43c2.11,0,3.96,0.53,5.6,0.99
		c0.15,0.04,0.3,0.09,0.45,0.13l0.6-1.9C49.01,9.3,56.02,4.14,64,4.14c7.99,0,14.99,5.17,17.43,12.85l0.6,1.9
		c0.22-0.06,0.44-0.12,0.66-0.18c1.7-0.48,3.31-0.93,5.17-0.93c7.05,0,13.46,5.34,14.9,12.43l0.34,1.66h5.44
		c4.5,0,8.16,3.66,8.16,8.16C116.69,44.51,113.03,48.17,108.53,48.17z"/>
	<g>
		<path class="st2" d="M63.99,71.78c9.39,0,17.02,7.63,17.02,17.02s-7.63,17.02-17.02,17.02c-9.39,0-17.02-7.63-17.02-17.02
			S54.61,71.78,63.99,71.78 M63.99,69.65c-10.56,0-19.15,8.59-19.15,19.15c0,10.56,8.59,19.15,19.15,19.15
			c10.56,0,19.15-8.59,19.15-19.15C83.14,78.24,74.55,69.65,63.99,69.65L63.99,69.65z"/>
	</g>
</g>
</svg>
