<?xml version="1.0" encoding="utf-8"?>
<!-- Generator: Adobe Illustrator 24.0.1, SVG Export Plug-In . SVG Version: 6.00 Build 0)  -->
<svg version="1.1" id="Layer_1" xmlns="http://www.w3.org/2000/svg" xmlns:xlink="http://www.w3.org/1999/xlink" x="0px" y="0px"
	 viewBox="0 0 512 512" style="enable-background:new 0 0 512 512;" xml:space="preserve">
<style type="text/css">
	.st0{fill:#2262AE;}
	.st1{fill:#131826;}
</style>
<g>
	<path class="st0" d="M169.11,389.41h56.25c18.25,0,34.61-3.36,49.02-10.1c14.43-6.74,26.56-16.11,36.43-28.13
		c9.84-12.01,17.3-26.19,22.35-42.55c5.04-16.33,7.57-34.12,7.57-53.36h142.78c0,38.94-6.13,74.17-18.39,105.65
		c-12.26,31.49-29.69,58.41-52.28,80.77c-22.61,22.35-49.76,39.67-81.49,51.92S264.3,512,225.36,512h-56.25L169.11,389.41z"/>
	<path class="st1" d="M340.73,255.28c0-19.7-2.65-37.74-7.94-54.08s-12.86-30.29-22.71-41.84c-9.87-11.53-22-20.55-36.41-27.04
		c-14.43-6.49-30.54-9.73-48.31-9.73h-56.25v266.82l0,122.59H28.48V0h196.88c42.29,0,79.55,6.74,111.77,20.18
		c32.2,13.47,59.14,31.74,80.77,54.8c21.64,23.08,37.97,50.12,49.04,81.13c11.05,31,16.59,64.07,16.59,99.16H340.73z"/>
</g>
</svg>
